<?xml version="1.0" encoding="UTF-8" standalone="no"?>
<!DOCTYPE svg PUBLIC "-//W3C//DTD SVG 1.1//EN" "http://www.w3.org/Graphics/SVG/1.1/DTD/svg11.dtd">
<svg width="100%" height="100%" viewBox="0 0 1271 325" version="1.1" xmlns="http://www.w3.org/2000/svg" xmlns:xlink="http://www.w3.org/1999/xlink" xml:space="preserve" xmlns:serif="http://www.serif.com/" style="fill-rule:evenodd;clip-rule:evenodd;stroke-linejoin:round;stroke-miterlimit:1.41421;">
    <g transform="matrix(4.16667,0,0,4.16667,0,0)">
        <path d="M30.809,25.47L25.818,25.47C25.818,39.704 37.355,51.254 51.585,51.254C51.647,51.254 51.707,51.249 51.766,51.249L51.766,46.253C51.707,46.253 51.647,46.256 51.585,46.256C40.114,46.256 30.809,36.948 30.809,25.47Z" style="fill:rgb(240,74,79);fill-rule:nonzero;"/>
        <path d="M51.585,41.27C51.647,41.27 51.707,41.268 51.766,41.268L51.766,36.402C51.707,36.406 51.647,36.406 51.585,36.406C45.549,36.406 40.655,31.508 40.655,25.471L35.791,25.471C35.791,34.196 42.863,41.27 51.585,41.27Z" style="fill:rgb(240,74,79);fill-rule:nonzero;"/>
        <path d="M45.546,25.47C45.546,28.809 48.248,31.513 51.585,31.513C51.648,31.513 51.708,31.509 51.767,31.508L51.767,25.47L45.546,25.47Z" style="fill:rgb(240,74,79);fill-rule:nonzero;"/>
        <path d="M80.186,40.293L70.32,40.293L70.32,51.92L66.806,51.92L66.806,25.69L81.672,25.69L81.672,28.528L70.32,28.528L70.32,37.587L80.186,37.587L80.186,40.293Z" style="fill:rgb(28,24,28);fill-rule:nonzero;"/>
        <path d="M95.738,49.082L109.388,49.082L109.388,51.921L92.224,51.921L92.224,25.69L95.738,25.69L95.738,49.082Z" style="fill:rgb(28,24,28);fill-rule:nonzero;"/>
        <path d="M122.103,49.082L134.401,49.082L134.401,51.921L118.589,51.921L118.589,25.69L133.455,25.69L133.455,28.528L122.103,28.528L122.103,36.912L131.968,36.912L131.968,39.48L122.103,39.48L122.103,49.082Z" style="fill:rgb(28,24,28);fill-rule:nonzero;"/>
        <path d="M148.197,49.082L160.496,49.082L160.496,51.921L144.683,51.921L144.683,25.69L159.547,25.69L159.547,28.528L148.197,28.528L148.197,36.912L158.062,36.912L158.062,39.48L148.197,39.48L148.197,49.082Z" style="fill:rgb(28,24,28);fill-rule:nonzero;"/>
        <path d="M189.967,28.393L181.181,28.393L181.181,51.92L177.803,51.92L177.803,28.393L168.883,28.393L168.883,25.689L189.967,25.689L189.967,28.393Z" style="fill:rgb(28,24,28);fill-rule:nonzero;"/>
        <path d="M214.845,46.241L217.953,46.241C217.953,47.686 217.411,49.037 216.332,50.298C214.889,51.92 212.681,52.732 209.708,52.732C206.373,52.732 203.672,51.562 201.599,49.217C199.436,46.873 198.356,43.402 198.356,38.804C198.356,34.119 199.436,30.647 201.599,28.393C203.672,26.049 206.373,24.877 209.708,24.877C212.59,24.877 214.708,25.553 216.061,26.906C217.322,28.44 217.953,29.928 217.953,31.368L214.845,31.368C214.845,30.107 214.437,29.16 213.627,28.529C212.727,27.898 211.465,27.582 209.844,27.582C207.5,27.582 205.656,28.349 204.302,29.881C202.68,32.044 201.87,35.018 201.87,38.804C201.87,42.682 202.68,45.657 204.302,47.729C205.656,49.352 207.456,50.164 209.708,50.164C211.33,50.164 212.634,49.8 213.627,49.081C214.437,48.361 214.845,47.414 214.845,46.241Z" style="fill:rgb(28,24,28);fill-rule:nonzero;"/>
        <path d="M238.234,52.731C234.993,52.731 232.332,51.514 230.261,49.082C228.187,46.737 227.152,43.314 227.152,38.805C227.152,34.118 228.234,30.647 230.396,28.393C232.467,26.051 235.081,24.877 238.234,24.877C241.478,24.877 244.134,26.051 246.208,28.393C248.279,31.009 249.316,34.478 249.316,38.805C249.316,43.314 248.279,46.737 246.208,49.082C244.226,51.514 241.566,52.731 238.234,52.731ZM238.234,50.028C240.484,50.028 242.199,49.216 243.369,47.594C244.991,45.522 245.803,42.591 245.803,38.805C245.803,34.932 244.991,32 243.369,30.016C242.199,28.393 240.484,27.582 238.234,27.582C236.072,27.582 234.36,28.393 233.099,30.016C231.477,32 230.666,34.932 230.666,38.805C230.666,42.591 231.477,45.522 233.099,47.594C234.36,49.216 236.072,50.028 238.234,50.028Z" style="fill:rgb(28,24,28);fill-rule:nonzero;"/>
        <path d="M266.491,40.698L263.112,40.698L263.112,51.921L259.597,51.921L259.597,25.689L267.708,25.689C270.14,25.689 272.119,26.321 273.653,27.582C274.914,28.845 275.544,30.512 275.544,32.584C275.544,34.39 275.093,35.876 274.194,37.047C273.2,38.399 271.76,39.437 269.869,40.158C270.678,40.609 271.221,40.968 271.491,41.239C271.76,41.42 272.345,42.411 273.248,44.214L277.437,51.921L273.519,51.921L269.869,45.025C269.057,43.314 267.93,41.871 266.491,40.698ZM266.625,28.393L263.112,28.393L263.112,37.993L266.355,37.993C268.157,37.993 269.551,37.498 270.544,36.507C271.445,35.606 271.895,34.39 271.895,32.855C271.895,31.415 271.491,30.287 270.678,29.476C269.687,28.754 268.337,28.393 266.625,28.393Z" style="fill:rgb(28,24,28);fill-rule:nonzero;"/>
        <path d="M286.589,30.322C286.446,30.677 286.246,30.985 285.993,31.248C285.743,31.506 285.446,31.712 285.105,31.862C284.767,32.011 284.398,32.085 284.001,32.085C283.6,32.085 283.227,32.011 282.884,31.862C282.539,31.712 282.242,31.506 281.99,31.248C281.738,30.985 281.542,30.677 281.399,30.322C281.253,29.964 281.181,29.578 281.181,29.158C281.181,28.75 281.253,28.371 281.399,28.016C281.542,27.664 281.738,27.359 281.99,27.101C282.242,26.842 282.539,26.639 282.884,26.49C283.227,26.34 283.6,26.266 284.001,26.266C284.398,26.266 284.767,26.34 285.105,26.49C285.446,26.639 285.743,26.842 285.993,27.101C286.246,27.359 286.446,27.664 286.589,28.016C286.733,28.371 286.801,28.75 286.801,29.158C286.801,29.578 286.733,29.964 286.589,30.322ZM287.148,27.817C286.967,27.404 286.72,27.045 286.41,26.742C286.1,26.436 285.739,26.197 285.322,26.025C284.912,25.851 284.469,25.765 284.001,25.765C283.533,25.765 283.091,25.851 282.675,26.025C282.257,26.197 281.892,26.436 281.579,26.742C281.265,27.045 281.019,27.404 280.836,27.817C280.653,28.231 280.563,28.678 280.563,29.158C280.563,29.65 280.653,30.104 280.836,30.521C281.019,30.938 281.265,31.3 281.579,31.606C281.892,31.914 282.257,32.153 282.675,32.323C283.091,32.492 283.533,32.578 284.001,32.578C284.469,32.578 284.912,32.492 285.322,32.323C285.739,32.153 286.1,31.914 286.41,31.606C286.72,31.3 286.967,30.938 287.148,30.521C287.33,30.104 287.421,29.65 287.421,29.158C287.421,28.678 287.33,28.231 287.148,27.817Z" style="fill:rgb(28,24,28);fill-rule:nonzero;"/>
        <path d="M283.936,28.947L283.291,28.947L283.291,27.68L284.112,27.68C284.214,27.68 284.317,27.688 284.425,27.702C284.532,27.719 284.626,27.748 284.708,27.789C284.792,27.831 284.858,27.894 284.912,27.971C284.961,28.05 284.989,28.158 284.989,28.291C284.989,28.449 284.958,28.572 284.902,28.661C284.842,28.749 284.767,28.814 284.667,28.857C284.571,28.9 284.46,28.926 284.334,28.935C284.209,28.943 284.077,28.947 283.936,28.947ZM285.305,29.107C285.506,28.939 285.606,28.678 285.606,28.318C285.606,27.936 285.492,27.649 285.264,27.461C285.038,27.271 284.684,27.177 284.211,27.177L282.668,27.177L282.668,31.165L283.291,31.165L283.291,29.45L283.947,29.45L285.032,31.165L285.701,31.165L284.557,29.404C284.856,29.373 285.105,29.275 285.305,29.107Z" style="fill:rgb(28,24,28);fill-rule:nonzero;"/>
    </g>
</svg>
